{"title":"White.Sands.1992.DVB.HDTV.1080i.SkyActionHD","uid":15701463,"size":4652195172,"categoryP":"video","categoryS":"hd___movies","magnet":"?xt=urn:btih:d9a9b0c857011fbed0edee926d0ddcd6ab39b5c1&amp;dn=White.Sands.1992.DVB.HDTV.1080i.SkyActionHD&amp;tr=udp%3A%2F%2Ftracker.leechers-paradise.org%3A6969&amp;tr=udp%3A%2F%2Fzer0day.ch%3A1337&amp;tr=udp%3A%2F%2Fopen.demonii.com%3A1337&amp;tr=udp%3A%2F%2Ftracker.coppersurfer.tk%3A6969&amp;tr=udp%3A%2F%2Fexodus.desync.com%3A6969","seeders":1,"leechers":0,"uploader":null,"files":1,"time":1472481602,"description":"White Sands (1992)\r\n\r\nA small southwestern town sheriff finds a body in the desert with a suitcase and $500,000. He impersonates the man and stumbles into an FBI investigation. \r\n\r\n\r\n---------------------------------------------------------------------------------\r\n\r\n\r\nRemember, many people are working hard - day and night - to bring you these goodies for free\r\nIf you can, get a seedbox and help seed this baby or make a donation to the tracker of your choice\r\n\r\n\r\n----------------------------------------------------------------------------------\r\n\r\nInstructions: Install K-Lite Codec Pack Full - .TS \r\n\r\nA 9\r\nV 9\r\n\r\nGeneral\r\n\r\nFormat                      : MPEG-TS\r\nFile size                   : 4.33 GiB\r\nDuration                    : 1 h 37 min\r\nOverall bit rate mode       : Variable\r\nOverall bit rate            : 6 394 kb/s\r\n\r\nVideo\r\n\r\nFormat                      : AVC\r\nFormat/Info                 : Advanced Video Codec\r\nFormat profile              :   \r\nFormat settings, CABAC      : Yes\r\nDuration                    : 1 h 37 min\r\nBit rate mode               : Variable\r\nBit rate                    : 5 302 kb/s\r\nMaximum bit rate            : 40.0 Mb/s\r\nWidth                       : 1 920 pixels\r\nHeight                      : 1 080 pixels\r\nDisplay aspect ratio        : 16:9\r\nFrame rate                  : 25.000 FPS\r\nColor space                 : YUV\r\nChroma subsampling          : 4:2:0\r\nBit depth                   : 8 bits\r\nStream size                 : 3.59 GiB (83%)\r\nColor range                 : Limited\r\nColor primaries             : BT.709\r\n\r\n\r\nAudio #3\r\n\r\nFormat                      : AC-3\r\nBit rate mode               : Constant\r\nBit rate                    : 384 kb/s\r\nChannel(s)                  : 6 channels\r\nSampling rate               : 48.0 kHz\r\nStream size                 : 266 MiB (6%)\r\nLanguage                    : English","torrent":{"xt":"urn:btih:d9a9b0c857011fbed0edee926d0ddcd6ab39b5c1","amp;dn":"White.Sands.1992.DVB.HDTV.1080i.SkyActionHD","amp;tr":["udp%3A%2F%2Ftracker.leechers-paradise.org%3A6969","udp%3A%2F%2Fzer0day.ch%3A1337","udp%3A%2F%2Fopen.demonii.com%3A1337","udp%3A%2F%2Ftracker.coppersurfer.tk%3A6969","udp%3A%2F%2Fexodus.desync.com%3A6969"],"infoHash":"d9a9b0c857011fbed0edee926d0ddcd6ab39b5c1","infoHashBuffer":{"type":"Buffer","data":[217,169,176,200,87,1,31,190,208,237,238,146,109,13,220,214,171,57,181,193]},"announce":[],"urlList":[]}}